<svg width="10" height="16" fill="none" xmlns="http://www.w3.org/2000/svg"><path d="M8.78314.211465L6.78403.208252c-2.24592 0-3.69734 1.491658-3.69734 3.800408V5.7609H1.07668c-.173685 0-.314336.14105-.314336.31504v2.5388c0 .17398.140812.31488.314336.31488h2.01001v6.40618c0 .174.14065.3149.31434.3149h2.62249c.17369 0 .31434-.1411.31434-.3149V8.92962h2.35017c.17369 0 .31434-.1409.31434-.31488l.00096-2.5388c0-.08354-.03319-.16355-.09205-.22267-.05886-.05912-.13905-.09237-.22244-.09237H6.33786V4.2755c0-.71394.16984-1.07637 1.09827-1.07637l1.34669-.00048c.17352 0 .31418-.14106.31418-.31488V.526345c0-.173666-.1405-.314559-.31386-.31488z" fill="#fff"/></svg>