<svg width="21" height="14" fill="none" xmlns="http://www.w3.org/2000/svg"><path d="M.223131 6.96186C.103868 3.7604 2.85429.801866 5.99753.763482c1.60202-.13931 3.16061.494968 4.37297 1.529468-.49731.55751-1.00332 1.10857-1.54383 1.62448-1.06731-.66112-2.35235-1.16495-3.59975-.71749-2.01194.58408-3.23037 3.00605-2.48583 5.01276.61659 2.0958 3.1169 3.246 5.07645 2.3656 1.01466-.3704 1.68364-1.32493 1.97719-2.35056-1.16288-.02363-2.32603-.00886-3.48891-.04161-.00289-.70541-.00579-1.40814-.00289-2.11355 1.93927-.00295 3.88147-.00886 5.82367.00886.1192 1.72836-.1309 3.57805-1.233 4.96526-1.50905 1.9801-4.29712 2.5613-6.56523 1.7845C1.92125 12.0251.170739 9.55266.223131 6.96186zM15.9067 4.2937h1.7297c.0031.58999.0087 1.18293.0118 1.77265.5784.00591 1.16.00886 1.7387.01181v1.76675c-.5784.00295-1.16.00591-1.7387.00886-.0058.59294-.0087 1.18266-.0118 1.7756-.5784-.00295-1.1574 0-1.7329 0-.0055-.59294-.0055-1.18266-.0116-1.77265-.5784-.00617-1.16-.00886-1.7386-.01208V6.0779c.5786-.00296 1.1573-.00591 1.7386-.01181.0029-.58946.0087-1.1824.0148-1.77239z" fill="#fff"/></svg>