<svg width="18" height="18" fill="none" xmlns="http://www.w3.org/2000/svg"><path fill-rule="evenodd" clip-rule="evenodd" d="M5.8125.5h6.375C15.1211.5 17.5 2.87894 17.5 5.8125v6.375c0 2.9336-2.3789 5.3125-5.3125 5.3125h-6.375C2.87894 17.5.5 15.1211.5 12.1875v-6.375C.5 2.87894 2.87894.5 5.8125.5zm6.375 15.4062c2.0506 0 3.7187-1.6681 3.7187-3.7187v-6.375c0-2.05063-1.6681-3.71875-3.7187-3.71875h-6.375c-2.05063 0-3.71875 1.66812-3.71875 3.71875v6.375c0 2.0506 1.66812 3.7187 3.71875 3.7187h6.375z" fill="#fff"/><path fill-rule="evenodd" clip-rule="evenodd" d="M4.75 9c0-2.34706 1.90294-4.25 4.25-4.25 2.3471 0 4.25 1.90294 4.25 4.25 0 2.3471-1.9029 4.25-4.25 4.25-2.34706 0-4.25-1.9029-4.25-4.25zm1.59375 0c0 1.4641 1.19212 2.6562 2.65625 2.6562 1.4641 0 2.6562-1.1921 2.6562-2.6562 0-1.46519-1.1921-2.65625-2.6562-2.65625-1.46413 0-2.65625 1.19106-2.65625 2.65625z" fill="#fff"/><path d="M13.6042 5.45825c.5868 0 1.0625-.4757 1.0625-1.0625s-.4757-1.0625-1.0625-1.0625-1.0625.4757-1.0625 1.0625.4757 1.0625 1.0625 1.0625z" fill="#fff"/></svg>