<svg width="13" height="16" fill="none" xmlns="http://www.w3.org/2000/svg"><path d="M10.8089 1.80026C9.75561.773661 8.29803.208252 6.70463.208252c-2.434 0-3.93101 1.013018-4.75824 1.862788C.926898 3.11828.342285 4.5088.342285 5.88615c0 1.72935.712435 3.05669 1.905495 3.55049.0801.03332.16069.05011.2397.05011.25169 0 .45112-.16721.52021-.43543.04027-.15388.13359-.53349.17416-.6983.08686-.32544.01668-.48198-.17273-.70861-.34506-.41454-.50575-.90474-.50575-1.5427 0-1.89495 1.38973-3.90891 3.96546-3.90891 2.04373 0 3.31328 1.17937 3.31328 3.07783 0 1.19801-.25416 2.30749-.71579 3.12418-.32078.56747-.88486 1.24391-1.75082 1.24391-.37448 0-.71086-.15618-.92312-.42846-.20051-.2574-.26659-.58991-.18595-.93646.0911-.39153.21532-.79996.33554-1.1948.21926-.72114.42654-1.40225.42654-1.94566 0-.92949-.5628-1.55403-1.40034-1.55403-1.0644 0-1.89829 1.09765-1.89829 2.4989 0 .68722.17989 1.20122.26132 1.39859-.13409.57683-.93101 4.0062-1.08218 4.6529-.0874.3775-.61392 3.3591.25757 3.5969.97917.2671 1.85441-2.6368 1.94349-2.9649.0722-.2669.32483-1.276.47965-1.8964.47268.4623 1.23377.7749 1.97434.7749 1.39609 0 2.65163-.6379 3.53533-1.79604.8571-1.1233 1.3292-2.68895 1.3292-4.40833 0-1.34417-.5686-2.66931-1.5597-3.63557z" fill="#fff"/></svg>