<svg width="16" height="17" fill="none" xmlns="http://www.w3.org/2000/svg"><path fill-rule="evenodd" clip-rule="evenodd" d="M11.8125 11.2762l3.9442 4.2081c.3337.356.3227.9236-.0241 1.2659-.1632.1612-.3782.2498-.6048.2498-.2395 0-.4629-.0976-.629-.2745l-3.9742-4.2401c-1.12851.8136-2.44841 1.2421-3.83347 1.2421C3.0017 13.7275 0 10.6484 0 6.86374 0 3.07913 3.0017 0 6.69113 0c3.68947 0 6.69117 3.07913 6.69117 6.86374 0 1.61985-.5557 3.17586-1.5698 4.41246zm-.1758-4.41246c0-2.79742-2.2185-5.0732-4.94557-5.0732s-4.94562 2.27578-4.94562 5.0732c0 2.79743 2.21855 5.07316 4.94562 5.07316s4.94557-2.27573 4.94557-5.07316z" fill="#929EAF"/></svg>