<svg width="16" height="14" fill="none" xmlns="http://www.w3.org/2000/svg"><path d="M15.7917 2.1344c-.5732.25589-1.1898.42896-1.8364.50626.6602-.39824 1.1668-1.02835 1.406-1.780416-.6178.368946-1.3023.636596-2.0302.780866C12.7479 1.01579 11.9169.625 10.9968.625c-1.76531 0-3.19709 1.44147-3.19709 3.21877 0 .25228.02838.49785.08322.73357-2.65707-.13418-5.013-1.41554-6.58998-3.36351-.27515.47529-.432992 1.02859-.432992 1.61839 0 1.11645.564842 2.10207 1.422242 2.67914-.52384-.01656-1.01715-.16131-1.447992-.40304-.000238.01369-.000238.02737-.000238.04081 0 1.55958 1.1025 2.86038 2.5648 3.15588-.268.07393-.55102.11306-.84214.11306-.20648 0-.40652-.01993-.60156-.05737.40676 1.27848 1.58723 2.2091 2.98658 2.2353-1.0944.8634-2.47276 1.3779-3.97106 1.3779-.257505 0-.512625-.0152-.762262-.0452 1.414132.9136 3.095062 1.4463 4.900462 1.4463 5.88061 0 9.09661-4.9046 9.09661-9.15844 0-.13947-.0031-.27846-.0093-.41624.6251-.45369 1.1671-1.02043 1.5956-1.66592z" fill="#fff"/></svg>